<?xml version="1.0" standalone="no"?><!DOCTYPE svg PUBLIC "-//W3C//DTD SVG 1.1//EN" "http://www.w3.org/Graphics/SVG/1.1/DTD/svg11.dtd"><svg t="1625739613265" class="icon" viewBox="0 0 1024 1024" version="1.1" xmlns="http://www.w3.org/2000/svg" p-id="9098" xmlns:xlink="http://www.w3.org/1999/xlink" width="200" height="200"><defs><style type="text/css"></style></defs><path d="M647.48 497.59c-53.36 0.13-96.54 43.12-96.53 96.1 0 16.72 13.65 30.27 30.49 30.27 16.83 0 30.48-13.55 30.48-30.27 0-12.61 6.78-24.27 17.78-30.58a35.785 35.785 0 0 1 35.57 0c11 6.31 17.78 17.97 17.78 30.58 0 16.72 13.64 30.27 30.48 30.27 16.83 0 30.48-13.55 30.48-30.27 0.01-52.99-43.17-95.98-96.53-96.1z" p-id="9099"></path><path d="M955.11 497.59H931.4c-3.03 0.07-5.82-1.64-7.09-4.38-23.24-55.46-60.12-104.25-107.26-141.9a7.94 7.94 0 0 1-3.08-6.18v-80.57c0.04-16.56-8.28-32.03-22.16-41.2-13.88-9.17-31.47-10.81-46.83-4.39l-27.3 11.49c-11.58-55.15-39.32-105.66-79.74-145.19C583.69 31.13 509.68 1.09 432.77 1.96 348.02 3.1 268.06 41.15 214.06 106.03c-53.99 64.87-76.54 150.02-61.7 232.88C53.95 408.53-2.77 522.51 1.32 642.44c4.1 119.92 68.46 229.83 171.41 292.67v40.31c-0.01 26.55 21.64 48.1 48.38 48.17h119.78c22.12-0.06 41.43-14.91 47.02-36.16 50.15-0.29 153.14-0.88 203.84-1.07 5.2 21.78 24.76 37.18 47.31 37.22h119.78c26.74-0.07 48.38-21.61 48.38-48.17v-58.59c50.56-37.58 90.29-87.68 115.21-145.3 1.3-2.65 4.05-4.29 7.01-4.21h25.66c38.08-0.09 68.9-30.77 68.89-68.58V566.17c0.02-37.81-30.8-68.49-68.88-68.58z m-719.78-314.7C274.27 109.88 350.21 63.77 433.4 62.63h2.36c59.79 0.02 117.11 23.69 159.29 65.77 77.76 76.07 89.95 196.33 29.02 286.26a7.43 7.43 0 0 1-6.16 2.91c-46.17-0.09-117.19-0.43-187.39-0.77-67.73-0.32-134.65-0.65-177.88-0.73a7.376 7.376 0 0 1-6.15-2.93c-45.82-68.96-50.09-157.24-11.16-230.25z m727.69 515.88c0 4.35-3.54 7.88-7.92 7.89h-25.66c-27.34-0.12-52.12 15.96-63 40.87-21.39 49.46-55.91 92.23-99.86 123.74-12.7 9.07-20.25 23.64-20.3 39.17v52.47h-96.12c-5.18-21.8-24.76-37.22-47.31-37.26h-0.13c-47.7 0.13-174.75 0.87-223.99 1.16h-1.93c-21.97 0.21-41.08 14.99-46.66 36.09H233.7v-34.93c-0.08-17.13-9.25-32.96-24.12-41.64v-0.01C125.42 837.16 70.71 750.31 63.01 653.66c-7.7-96.65 32.59-190.96 107.92-252.64a285.288 285.288 0 0 0 24.73 45.67c12.66 18.87 34.01 30.17 56.84 30.1 43.2 0.09 110.08 0.41 177.71 0.73 70.27 0.34 141.36 0.68 187.58 0.76h0.13c22.7 0.12 43.97-11 56.71-29.66 31.04-45.8 48.05-99.56 48.96-154.76l29.45-12.38v63.65c-0.02 20.83 9.51 40.53 25.9 53.53 39.15 31.26 69.78 71.78 89.08 117.85 10.63 25.41 35.68 41.91 63.38 41.78h23.7c4.38 0 7.92 3.54 7.92 7.89v132.59zM346.54 203.1h24.4l-39.5-39.24c-10.29-10.54-10.16-27.33 0.29-37.72 10.45-10.38 27.36-10.52 37.99-0.3l62.3 61.9 62.34-61.9c6.84-6.79 16.81-9.44 26.15-6.95 9.34 2.48 16.64 9.73 19.14 19.01 2.5 9.28-0.17 19.17-7.01 25.96l-39.51 39.24H515c14.95 0 27.08 12.04 27.08 26.89 0 14.85-12.13 26.89-27.08 26.89h-57.14v16.92H515c14.95 0 27.08 12.04 27.08 26.89 0 14.85-12.13 26.89-27.08 26.89h-57.14v36.84c0.15 9.7-4.98 18.72-13.41 23.61a27.236 27.236 0 0 1-27.3 0c-8.43-4.89-13.56-13.91-13.41-23.61v-36.84H346.6c-14.96 0.01-27.09-12.01-27.1-26.86-0.02-14.85 12.1-26.9 27.05-26.91h57.14v-16.92h-57.14c-14.96 0-27.07-12.04-27.07-26.89-0.01-14.86 12.1-26.9 27.06-26.9z" p-id="9100"></path></svg>