<?xml version="1.0" standalone="no"?><!DOCTYPE svg PUBLIC "-//W3C//DTD SVG 1.1//EN" "http://www.w3.org/Graphics/SVG/1.1/DTD/svg11.dtd"><svg t="1625740044247" class="icon" viewBox="0 0 1024 1024" version="1.1" xmlns="http://www.w3.org/2000/svg" p-id="12595" xmlns:xlink="http://www.w3.org/1999/xlink" width="200" height="200"><defs><style type="text/css"></style></defs><path d="M512 938.666667a21.333333 21.333333 0 0 1-21.333333-21.333334V341.333333a21.333333 21.333333 0 0 1 42.666666 0v576a21.333333 21.333333 0 0 1-21.333333 21.333334z" p-id="12596"></path><path d="M533.333333 341.333333a21.333333 21.333333 0 0 1-4.608-42.154666 301.397333 301.397333 0 0 0 122.837334-47.061334 111.616 111.616 0 0 0 38.997333-67.2 55.808 55.808 0 0 0-11.690667-43.093333 35.968 35.968 0 0 0-29.994666-14.293333h-0.170667a108.970667 108.970667 0 0 0-76.629333 45.354666c-2.688 3.413333-5.205333 6.912-7.552 10.410667a21.333333 21.333333 0 0 1-35.498667-23.637333c2.986667-4.522667 6.186667-8.96 9.642667-13.312a149.973333 149.973333 0 0 1 110.08-61.482667h0.256a79.232 79.232 0 0 1 63.445333 30.634667 98.901333 98.901333 0 0 1 20.437333 74.581333 154.069333 154.069333 0 0 1-55.082666 95.658667 334.805333 334.805333 0 0 1-139.861334 55.082666A22.144 22.144 0 0 1 533.333333 341.333333z" p-id="12597"></path><path d="M431.872 340.778667A156.16 156.16 0 0 1 358.826667 323.413333a123.861333 123.861333 0 0 1-66.261334-83.626666 85.034667 85.034667 0 0 1 20.608-72.704c38.016-42.922667 95.232-45.098667 156.928-6.314667a139.264 139.264 0 0 1 65.237334 103.808 62.72 62.72 0 0 1-24.234667 54.741333 141.354667 141.354667 0 0 1-79.232 21.461334z m-44.245333-165.12a54.784 54.784 0 0 0-42.496 19.712 42.026667 42.026667 0 0 0-10.538667 36.821333 82.176 82.176 0 0 0 44.245333 53.504 117.632 117.632 0 0 0 106.837334-0.682667 20.906667 20.906667 0 0 0 7.04-18.773333 97.109333 97.109333 0 0 0-45.397334-69.376 116.224 116.224 0 0 0-59.690666-21.205333zM832 650.666667h-640a21.333333 21.333333 0 0 1 0-42.666667h640a21.333333 21.333333 0 0 1 0 42.666667z" p-id="12598"></path><path d="M789.333333 938.666667h-554.666666A64.085333 64.085333 0 0 1 170.666667 874.666667v-512A64.085333 64.085333 0 0 1 234.666667 298.666667h554.666666A64.085333 64.085333 0 0 1 853.333333 362.666667v512a64.085333 64.085333 0 0 1-64 64zM234.666667 341.333333a21.333333 21.333333 0 0 0-21.333334 21.333334v512a21.333333 21.333333 0 0 0 21.333334 21.333333h554.666666a21.333333 21.333333 0 0 0 21.333334-21.333333v-512a21.333333 21.333333 0 0 0-21.333334-21.333334z" p-id="12599"></path></svg>